<?xml version="1.0" ?><!DOCTYPE svg  PUBLIC '-//W3C//DTD SVG 1.1//EN'  'http://www.w3.org/Graphics/SVG/1.1/DTD/svg11.dtd'><svg enable-background="new 0 0 100 100" height="100px" id="Layer_1" version="1.1" viewBox="0 0 100 100" width="100px" xml:space="preserve" xmlns="http://www.w3.org/2000/svg" xmlns:xlink="http://www.w3.org/1999/xlink"><g><rect height="2" width="18.334" x="22.5" y="19.667"/><rect height="2" width="36.667" x="22.5" y="27"/><rect height="2" width="36.667" x="22.5" y="34.333"/><rect height="2" width="36.667" x="22.5" y="41.667"/><path d="M71.167,50.569V5H17.834v3.667h-3.667v68H40.31C42.473,87.119,51.749,95,62.833,95c12.683,0,23-10.318,23-23   C85.833,62.257,79.74,53.915,71.167,50.569z M19.834,7h49.333v42.894c-0.549-0.157-1.103-0.3-1.667-0.417V8.667H19.834V7z    M39.858,73c0.024,0.561,0.07,1.116,0.134,1.667H16.167v-64h1.667h2H65.5V49.16C64.624,49.058,63.735,49,62.833,49   c-1.248,0-2.472,0.104-3.666,0.295V49H22.5v2h30.97c-7.739,3.464-13.228,11.08-13.611,20c-0.015,0.332-0.025,0.665-0.025,1   S39.844,72.668,39.858,73z M62.833,93c-9.974,0-18.329-6.996-20.459-16.333c-0.076-0.331-0.14-0.664-0.199-1   c-0.059-0.331-0.11-0.664-0.153-1c-0.07-0.549-0.111-1.105-0.138-1.667c-0.016-0.333-0.051-0.663-0.051-1s0.035-0.667,0.051-1   c0.527-11.114,9.708-20,20.949-20c0.905,0,1.791,0.077,2.667,0.188c0.336,0.043,0.669,0.095,1,0.153c0.336,0.06,0.67,0.124,1,0.199   c0.563,0.128,1.122,0.267,1.667,0.44c0.683,0.217,1.349,0.47,2,0.753C78.61,55.966,83.833,63.381,83.833,72   C83.833,83.58,74.412,93,62.833,93z"/><polygon points="63.775,81.067 63.79,76.667 63.793,75.667 63.796,74.667 63.802,73 63.808,71 63.84,61.003 61.812,60.997    61.78,71 61.774,73 61.769,74.667 61.766,75.667 61.763,76.667 61.748,81.036 55.171,76.667 53.666,75.667 52.395,74.822    51.833,75.667 51.271,76.511 51.505,76.667 62.745,84.133 74.532,76.598 73.44,74.889  "/></g></svg>