<?xml version="1.0" ?><svg height="48px" version="1.1" viewBox="0 0 48 48" width="48px" xmlns="http://www.w3.org/2000/svg" xmlns:sketch="http://www.bohemiancoding.com/sketch/ns" xmlns:xlink="http://www.w3.org/1999/xlink"><title/><defs/><g fill="none" fill-rule="evenodd" id="shadow" stroke="none" stroke-width="1"><g id="location"><path d="M24,48 C37.2548347,48 48,37.2548347 48,24 C48,10.7451653 37.2548347,0 24,0 C10.7451653,0 0,10.7451653 0,24 C0,37.2548347 10.7451653,48 24,48 Z" fill="#CE6F2D"/><path d="M0.684695995,29.715304 C2.44854197,36.9356462 7.47895155,42.8751675 14.1210284,45.8789716 L23.1919922,36.8080078 L30.0859375,21.3378906 L27.8207031,13.7941406 L16.6058594,13.7941406 L0.684695995,29.715304 Z" fill="#000000" fill-opacity="0.400000006"/><path d="M13.8461538,20.3076923 C13.8461538,25.4061538 23.0769231,37.3305288 23.0769231,37.0066857 C23.0769231,36.6828425 32.3076923,25.4061538 32.3076923,20.3076923 C32.3076923,15.2092308 28.1723077,11.0769231 23.0769231,11.0769231 C17.9815385,11.0769231 13.8461538,15.2092308 13.8461538,20.3076923 Z M18.4615385,19.3846154 C18.4615385,21.9338462 20.5292308,24 23.0769231,24 C25.6246154,24 27.6923077,21.9338462 27.6923077,19.3846154 C27.6923077,16.8353846 25.6246154,14.7692308 23.0769231,14.7692308 C20.5292308,14.7692308 18.4615385,16.8353846 18.4615385,19.3846154 Z" fill="#FFFFFF"/></g></g></svg>